<svg version="1.1" width="200" height="200" xmlns="http://www.w3.org/2000/svg" xmlns:xlink="http://www.w3.org/1999/xlink" viewBox="0 0 100 100" class="w-6 h-6"><rect width="100%" height="100%" fill="none" stroke-width="0px"/><path fill="#4F5D95" d="M16.1 58.7A35 35 0 1 0 50.65 15.01L50.65 0A50 50 0 1 1 1.5 62.16z"/><path fill="#2b7489" d="M27.02 23.6A35 35 0 0 0 15.8 57.43L1.2 60.88A50 50 0 0 1 17.39 12.1z"/><path fill="#3572A5" d="M37.53 17.3A35 35 0 0 0 28.03 22.76L18.39 11.26A50 50 0 0 1 32.45 3.18z"/><path fill="#563d7c" d="M44.96 15.36A35 35 0 0 0 38.76 16.85L33.68 2.74A50 50 0 0 1 43.08 0.48z"/><path fill="#89e051" d="M47.59 15.08A35 35 0 0 0 46.26 15.2L44.38 0.32A50 50 0 0 1 46.83 0.1z"/><path fill="#878787" d="M49.34 15.01A35 35 0 0 0 48.24 15.04L47.49 0.06A50 50 0 0 1 49.06 0.01z"/><path fill="#f1e05a" d="M50 15A35 35 0 0 0 49.34 15.01L49.06 0.01A50 50 0 0 1 50 0z"/></svg>
